# xmcd
#
# Track frame offsets:
#	150
#	17057
#	33949
#	52413
#	69680
#	85974
#	100538
#	117022
#	130323
#	151521
#	165986
#	185987
#
# Disc length: 2650 seconds
#
# Revision: 4
# Processed by: cddbd v1.5.2PL0 Copyright (c) Steve Scherf et al.
# Submitted via: EasyCDDAExtractor 16.0.0.1
#
DISCID=970a580c
DTITLE=The Bellamy Brothers - Over The Line
DYEAR=1997
DGENRE=Country
TTITLE0=Over The Line
TTITLE1=Slow Hurry
TTITLE2=Afterglow
TTITLE3=Guilty Of The Crime
TTITLE4=Catahoula
TTITLE5=Passion's Thunder
TTITLE6=Tough Love
TTITLE7=Mama Likes To Reggae
TTITLE8=Hurricane Alley
TTITLE9=Wonderful Mistake
TTITLE10=Hangin' In
TTITLE11=My Wife Left Me For My Girlfriend
EXTD=
EXTT0=
EXTT1=
EXTT2=
EXTT3=
EXTT4=
EXTT5=
EXTT6=
EXTT7=
EXTT8=
EXTT9=
EXTT10=
EXTT11=
PLAYORDER=
